<svg xmlns="http://www.w3.org/2000/svg" xmlns:xlink="http://www.w3.org/1999/xlink" version="1.1" x="0px" y="0px" viewBox="0 0 100 125" enable-background="new 0 0 100 100" xml:space="preserve"><path d="M11.114,21.607c-0.75-1.837-1.353-3.768-1.394-5.752c-0.04-1.914,0.393-3.987,1.743-5.338  c1.35-1.35,3.424-1.783,5.338-1.743c1.984,0.041,3.915,0.644,5.752,1.394c6.11,2.493,11.51,6.702,15.418,12.019  c1.698,2.31,3.172,5.076,2.753,7.912c-0.056,0.376-0.144,0.744-0.249,1.109c-0.156,1.4-1.073,3.158-1.055,4.482l2.553,2.553  l-0.002,0.002l6.417,6.417l-2.78,2.78l-6.417-6.417l-1.408-1.408l-1.167-1.167c-0.191-0.008-0.383-0.008-0.574,0.005  c-1.093,0.183-2.359,0.739-3.459,0.942c-0.504,0.162-1.013,0.304-1.537,0.382c-2.836,0.419-5.602-1.055-7.912-2.753  C17.816,33.117,13.607,27.718,11.114,21.607z M86.904,76.458c-5.07-4.357-11.286-7.327-16.792-11.118  c-1.324-0.911-2.605-1.884-3.901-2.855L55.304,51.579l-2.78,2.78l10.906,10.906c0.971,1.296,1.944,2.577,2.855,3.901  c3.79,5.506,6.761,11.722,11.118,16.792c1.556,1.81,3.62,3.66,5.986,3.343c1.671-0.224,3.308-1.147,4.505-2.353  c1.206-1.197,2.129-2.834,2.353-4.505C90.563,80.078,88.714,78.013,86.904,76.458z M91.133,16.807c0.172-0.172,0.172-0.45,0-0.622  c-0.172-0.172-0.45-0.172-0.622,0c-0.018,0.018-0.032,0.037-0.047,0.057c-0.001,0-0.002-0.001-0.003-0.001  c-3.305,3.356-10.15,11.132-10.868,11.871c-2.283,2.348-3.36,3.419-5.235,5.232c-0.795,0.769-1.691,1.467-2.751,1.782  c-0.562,0.167-0.883-0.402-0.855-0.666s0.21-0.672,0.351-0.898c1.743-2.791,3.967-4.695,6.26-7.054  c4.133-4.251,7.054-7.69,11.131-11.991c0,0,0.001,0,0.001-0.001c0,0,0.001-0.001,0.001-0.002c0.005-0.005,0.009-0.009,0.013-0.014  C88.51,14.5,88.51,14.5,88.509,14.499c0.103-0.12,0.102-0.299-0.012-0.412c-0.119-0.119-0.312-0.119-0.431,0  c-0.001,0.001-0.002,0.003-0.003,0.005c-4.945,4.938-8.99,8.918-13.99,13.799c-1.475,1.44-2.776,2.699-4.475,3.867  c-0.527,0.362-1.212,0.705-1.774,0.401l-0.008-0.008l-0.008-0.008c-0.304-0.563,0.039-1.247,0.401-1.774  c1.168-1.699,2.427-3,3.867-4.475c4.881-5.001,8.862-9.045,13.8-13.991c-0.001-0.001-0.001-0.001-0.002-0.002  c0.004-0.003,0.008-0.004,0.012-0.008c0.119-0.119,0.119-0.312,0-0.431c-0.116-0.116-0.301-0.117-0.42-0.007c0,0,0,0,0,0  c-0.001,0.001-0.001,0.001-0.002,0.002c-0.002,0.002-0.006,0.003-0.008,0.006c-0.002,0.002-0.002,0.004-0.004,0.006  c-4.303,4.078-7.742,7-11.993,11.134c-2.359,2.294-4.263,4.517-7.054,6.26c-0.225,0.141-0.633,0.323-0.898,0.351  c-0.264,0.028-0.833-0.293-0.666-0.855c0.315-1.06,1.013-1.956,1.782-2.751c1.813-1.875,2.884-2.952,5.232-5.235  c0.739-0.718,8.514-7.563,11.87-10.868c0-0.001-0.001-0.003-0.002-0.004c0.152-0.173,0.147-0.435-0.018-0.6  c-0.146-0.146-0.37-0.167-0.539-0.064c-0.001-0.001-0.002-0.001-0.003-0.002c-7.561,5.233-14.603,11.216-20.99,17.831  c-1.792,1.856-3.595,3.874-4.22,6.377c-0.351,1.405,0.956,3.59,1.002,5.189L32.81,64.376c-1.296,0.971-2.577,1.944-3.901,2.855  c-5.506,3.79-11.722,6.761-16.792,11.118c-1.811,1.556-3.66,3.62-3.343,5.986c0.224,1.671,1.147,3.308,2.353,4.505  c1.197,1.206,2.834,2.129,4.505,2.353c2.366,0.317,4.43-1.533,5.986-3.343c4.357-5.07,7.327-11.286,11.118-16.792  c0.911-1.324,1.884-2.605,2.855-3.901L61.735,41.01c1.599,0.046,3.783,1.353,5.189,1.002c2.503-0.626,4.521-2.428,6.377-4.22  c6.612-6.383,12.591-13.421,17.822-20.977C91.126,16.813,91.13,16.81,91.133,16.807z"/><text x="0" y="115" fill="#000000" font-size="5px" font-weight="bold" font-family="'Helvetica Neue', Helvetica, Arial-Unicode, Arial, Sans-serif">Created by Gregor Črešnar</text><text x="0" y="120" fill="#000000" font-size="5px" font-weight="bold" font-family="'Helvetica Neue', Helvetica, Arial-Unicode, Arial, Sans-serif">from the Noun Project</text></svg>